# xmcd
#
# Track frame offsets:
#	150
#	12910
#	27955
#	39121
#	55875
#	69328
#	82452
#	95031
#	106862
#	119090
#
# Disc length: 1751 seconds
#
# Revision: 0
# Processed by: cddbd v1.5.2PL0 Copyright (c) Steve Scherf et al.
# Submitted via: EasyCDDAExtractor 15.3.0.1
#
DISCID=8206d50a
DTITLE=Campbell Glen - I Remember Hank Williams
DYEAR=1900
DGENRE=
TTITLE0=Half As Much
TTITLE1=Your Cheatin' Heart
TTITLE2=I'm So Lonesome I Could Cry
TTITLE3=You Win Again
TTITLE4=I Could Never Be Ashamed Of You
TTITLE5=Wedding Bells
TTITLE6=Cold Cold Heart
TTITLE7=Take These Chains From My Heart
TTITLE8=I Can't Help It (If I'm Still In Love With You)
TTITLE9=Mansion On The Hill
EXTD=
EXTT0=
EXTT1=
EXTT2=
EXTT3=
EXTT4=
EXTT5=
EXTT6=
EXTT7=
EXTT8=
EXTT9=
PLAYORDER=
